<?xml version="1.0" encoding="utf-8"?>
<!-- Event Icon - Generated based on logo_gedankenfolger_sm.svg style -->
<svg version="1.1" xmlns="http://www.w3.org/2000/svg" xmlns:xlink="http://www.w3.org/1999/xlink" x="0px" y="0px"
	 viewBox="0 0 64 64" style="enable-background:new 0 0 64 64;" xml:space="preserve">
<style type="text/css">
	.st0{fill:#5C656E;}
</style>
<path class="st0" d="M48,8h-4V6c0-1.7-1.3-3-3-3s-3,1.3-3,3v2H26V6c0-1.7-1.3-3-3-3s-3,1.3-3,3v2h-4c-3.3,0-6,2.7-6,6v36
	c0,3.3,2.7,6,6,6h32c3.3,0,6-2.7,6-6V14C54,10.7,51.3,8,48,8z M50,50c0,1.1-0.9,2-2,2H16c-1.1,0-2-0.9-2-2V22h36V50z M50,18H14v-4
	c0-1.1,0.9-2,2-2h4v2c0,1.7,1.3,3,3,3s3-1.3,3-3v-2h12v2c0,1.7,1.3,3,3,3s3-1.3,3-3v-2h4c1.1,0,2,0.9,2,2V18z"/>
<circle class="st0" cx="24" cy="30" r="2.5"/>
<circle class="st0" cx="32" cy="30" r="2.5"/>
<circle class="st0" cx="40" cy="30" r="2.5"/>
<circle class="st0" cx="24" cy="38" r="2.5"/>
<circle class="st0" cx="32" cy="38" r="2.5"/>
<circle class="st0" cx="40" cy="38" r="2.5"/>
<circle class="st0" cx="24" cy="46" r="2.5"/>
<circle class="st0" cx="32" cy="46" r="2.5"/>
</svg>
